<?xml version="1.0" encoding="utf-8"?>
<!-- Generator: Adobe Illustrator 15.0.0, SVG Export Plug-In . SVG Version: 6.00 Build 0)  -->
<!DOCTYPE svg PUBLIC "-//W3C//DTD SVG 1.1//EN" "http://www.w3.org/Graphics/SVG/1.1/DTD/svg11.dtd">
<svg version="1.1" id="Capa_1" xmlns="http://www.w3.org/2000/svg" xmlns:xlink="http://www.w3.org/1999/xlink" x="0px" y="0px"
	 width="350px" height="136.604px" viewBox="0 0 350 136.604" enable-background="new 0 0 350 136.604" xml:space="preserve">
<g id="_x23_0c0c0cff">
	<path fill="#FFFFFF" d="M143.5,8.463c0.922-1.081,2.729-1.106,3.69-0.06c1.103,1.1,0.369,2.851,1.148,4.104
		c0.729,1.224,1.552,2.485,1.545,3.968c0.135,1.291-0.528,2.449-1.159,3.518c0.124,0.17,0.379,0.513,0.503,0.684
		c0,0.306-0.007,0.916-0.007,1.22c-0.224,0.256-0.446,0.516-0.67,0.771c0.396,0.514,1.117,0.904,1.113,1.634
		c0.05,0.66-0.404,1.203-0.659,1.771c0.291,0.109,0.582,0.223,0.875,0.336c0.422,0.997,0.185,1.996-0.391,2.875
		c0.146,0.053,0.438,0.159,0.582,0.212c0.167,0.213,0.504,0.634,0.671,0.848c-0.182,0.648-0.384,1.291-0.613,1.925
		c0.979,0.724,1.066,1.886,0.925,3.01c3.084-2.975,4.417-7.218,5.148-11.327c0.393-2.039,0.457-4.116,0.793-6.161
		c0.984,0.74,2.034,1.483,2.645,2.59c0.606,1.036,0.702,2.255,0.895,3.415c0.546-0.799,1.134-1.567,1.732-2.326
		c0.81,1.404,1.438,2.988,1.358,4.637c-0.093,1.209-0.568,2.344-1.082,3.425c0.752-0.724,1.527-1.418,2.318-2.1
		c0.511,2.822,0.383,6.142-1.925,8.179c0.767-0.224,1.538-0.422,2.321-0.605c-0.138,1.652-0.386,3.414-1.471,4.739
		c-0.582,0.773-1.489,1.17-2.329,1.582c0.539,0.572,1.396,1.169,1.135,2.081c-0.238,0.739-0.972,1.089-1.56,1.503
		c-0.156,1.687-0.354,3.371-0.504,5.062c1.132,0.886,1.947,2.084,3.015,3.042c4.183,3.913,6.821,9.49,6.983,15.237
		c0.035,2.02-0.004,4.043,0.011,6.061c0.69,0.545,1.821,1.031,1.634,2.113c-0.014,0.922-1.006,1.258-1.634,1.709
		c-0.003,2.516,0,5.033-0.003,7.553c0.72,0.498,1.833,0.961,1.638,2.043c-0.024,1.102-1.216,1.623-2.176,1.531
		c-4.623-0.061-9.253,0.146-13.869-0.174c-6.978-0.014-13.954,0.004-20.935-0.006c-4.846,0.297-9.71,0.145-14.562,0.178
		c-1.058,0.125-2.276-0.703-2.054-1.865c-0.023-0.898,0.973-1.221,1.567-1.676c-0.011-2.533-0.007-5.068-0.003-7.6
		c-0.603-0.475-1.627-0.818-1.566-1.748c-0.203-1.041,0.871-1.479,1.559-1.967c0.039-2.283-0.078-4.568,0.079-6.849
		c0.39-5.463,2.935-10.707,6.888-14.479c1.088-0.965,1.918-2.181,3.054-3.092c-0.064-1.711-0.253-3.414-0.486-5.107
		c-0.631-0.444-1.599-0.84-1.457-1.784c-0.142-0.83,0.596-1.293,1.131-1.765c-2.758-0.773-3.836-3.736-3.928-6.332
		c0.783,0.18,1.565,0.375,2.343,0.595c-2.29-2.063-2.45-5.371-1.908-8.207c0.759,0.694,1.519,1.394,2.258,2.113
		c-0.507-1.216-1.03-2.475-0.98-3.818c-0.02-1.514,0.62-2.917,1.326-4.222c0.638,0.805,1.265,1.62,1.863,2.457
		c-0.227-2.567,1.256-4.936,3.499-6.102c0.376,4.736,1,9.589,3.178,13.879c0.658,1.341,1.634,2.479,2.673,3.542
		c-0.174-1.124-0.053-2.294,0.993-2.945c-0.593-0.833-0.663-1.801-0.271-2.74c0.202-0.06,0.604-0.189,0.805-0.252
		c-0.279-0.737-0.868-1.539-0.492-2.347c0.266-0.387,0.606-0.708,0.929-1.05c-0.287-0.631-0.748-1.285-0.503-2.017
		c0.248-0.418,0.605-0.759,0.915-1.137c-0.638-0.908-0.567-1.943-0.149-2.925c-1.018-1.485-1.279-3.41-0.685-5.116
		c0.373-0.989,1.082-1.806,1.464-2.79C143.001,10.778,142.589,9.388,143.5,8.463z"/>
	<path fill="#FFFFFF" d="M195.824,40.291c4.088-0.754,8.242-0.024,12.24,0.873c0.4,1.065,0.607,2.19,0.674,3.322
		c0.1,1.882,0.787,3.847-0.031,5.66c-2.227-0.762-2.309-3.354-3.613-4.973c-2.094-3.166-6.939-4.024-9.943-1.67
		c-2.914,2.077-3.436,6.71-0.918,9.299c3.672,3.913,9.037,5.689,12.691,9.636c1.854,1.942,3.211,4.467,3.332,7.193
		c0.357,4.309-2.279,8.533-6.072,10.484c-5.041,2.561-11.09,2.418-16.379,0.715c-1.395-0.379-2.582-1.545-2.836-2.992
		c-0.404-2-0.926-4.018-0.861-6.07c0.148-0.541,0.57-1.48,1.268-1.25c1.209,1.018,1.762,2.561,2.535,3.898
		c1.561,2.922,4.621,5.045,7.949,5.301c3.43,0.232,7.021-2.582,6.951-6.154c0.125-3.141-2.346-5.522-4.654-7.277
		c-3.896-2.873-8.527-5.229-10.977-9.611c-1.854-3.379-1.77-7.736,0.252-11.022C189.158,42.637,192.459,40.819,195.824,40.291z"/>
	<path fill="#FFFFFF" d="M24.157,41.153c2.028-0.407,4.099-0.125,6.145-0.106c3.549,0.169,7.09-0.284,10.635-0.213
		c0.698-0.046,1.256,0.4,1.801,0.762c-1.22,1.603-3.463,1.382-4.963,2.548c-0.762,0.568-0.699,1.607-0.826,2.447
		c-0.403,5.789-0.188,11.596-0.24,17.396c0.021,3.808-0.096,7.626,0.24,11.423c0.062,1.6,1.617,2.793,3.148,2.84
		c2.864,0.232,5.775,0.355,8.628-0.082c1.981-0.221,3.194-1.965,4.375-3.375c1.195-1.391,1.876-3.521,3.915-3.873
		c0.078,1.908-0.729,3.67-1.188,5.482c-0.397,1.316-0.597,2.697-1.106,3.979c-0.375,0.789-1.3,0.994-2.099,0.912
		c-6.998-0.131-13.992-0.576-20.994-0.318c-2.68,0.152-5.378,0.449-8.059,0.215c-0.869,0.033-1.043-1.225-0.285-1.525
		c1.4-0.791,3.297-0.625,4.422-1.916c1.06-1.379,0.965-3.232,1.074-4.875c0.244-8.637,0.344-17.277,0.166-25.917
		c-0.045-1.106-0.148-2.502-1.244-3.099c-1.283-0.659-2.762-0.886-3.946-1.751C23.855,41.866,24.058,41.389,24.157,41.153z"/>
	<path fill="#FFFFFF" d="M281.205,53.285c0.711-0.671,1.301-1.493,2.16-1.993c0.48,0.258,1.098,0.56,1.146,1.188
		c0.104,1.181,0.031,2.368,0.094,3.553c2.568,0.17,5.141-0.16,7.703,0.014c0.877,0.997,0.412,2.518,0.562,3.741
		c-2.688,0.569-5.449,0.085-8.156,0.375c0.043,4.572-0.189,9.149-0.051,13.723c-0.016,1.514,1.182,2.705,2.604,3.006
		c1.873,0.721,3.666-0.5,5.35-1.17c0.141,0.281,0.412,0.838,0.549,1.113c-2.238,4.953-9.734,6.52-13.719,2.805
		c-1.619-1.426-1.771-3.719-1.766-5.73c0.182-2.354,0.15-4.725,0.215-7.084c-0.029-2.066,0.232-4.145-0.006-6.204
		c-1.102-0.78-2.629-0.993-3.311-2.291C276.709,56.545,279.205,55.229,281.205,53.285z"/>
	<path fill="#FFFFFF" d="M246.346,56.722c1.883-0.566,3.596-1.556,5.441-2.22c0.484,1.372,0.311,2.847,0.354,4.271
		c2.428-1.518,4.881-3.37,7.861-3.488c2.996-0.267,6.188,1.318,7.424,4.131c1.66,3.403,1.061,7.267,1.256,10.917
		c0.102,2.336-0.117,4.703,0.256,7.02c0.57,1.572,2.572,1.461,3.719,2.404c-0.053,0.334,0.016,0.895-0.41,1.002
		c-1.988,0.768-4.146,0.033-6.213,0.15c-2.611-0.203-5.297,0.723-7.836-0.195c0.314-1.887,3.121-1.463,3.355-3.389
		c0.574-3.715,0.092-7.498,0.318-11.243c0.072-2.01,0.039-4.466-1.695-5.824c-2.219-1.557-5.77-1.51-7.635,0.563
		c-0.744,1.899-0.342,4.013-0.406,6.002c0.352,3.601-0.059,7.23,0.311,10.826c0.611,1.371,2.891,1.062,3.254,2.658
		c-1.092,1.145-2.777,0.752-4.176,0.686c-2.736-0.256-5.471,0.066-8.205,0.148c-0.836,0.014-2.094-0.172-2.061-1.26
		c1.035-0.904,2.625-0.951,3.498-2.057c0.758-1.658,0.531-3.559,0.645-5.33c0.234-3.312,0.146-6.633,0.211-9.949
		c-0.049-1.72-2.025-2.35-2.596-3.808C243.584,57.399,245.125,57.155,246.346,56.722z"/>
	<path fill="#FFFFFF" d="M69.762,55.907c2.669-0.9,5.722-0.903,8.274,0.372c2.697,1.24,4.785,4.01,4.746,7.048
		c-0.027,0.765-0.588,1.65-1.429,1.641c-4.79,0.16-9.597-0.189-14.375,0.192c-0.606,2.839,0.021,5.899,1.681,8.276
		c2.272,3,6.53,3.768,10.008,2.795c1.449-0.367,2.328-1.65,3.389-2.596c0.965,0.217,0.652,1.438,0.369,2.105
		c-1.528,2.807-4.275,4.992-7.438,5.621c-3.521,0.662-7.453,0.166-10.264-2.209c-4.049-3.348-5.111-9.289-3.748-14.174
		C62.196,60.757,65.596,57.283,69.762,55.907 M67.213,62.789c2.204,0.433,4.466,0.202,6.7,0.249c1.084,0.062,2.41-0.412,2.673-1.588
		c0.425-2.457-2.318-5.19-4.775-4.126C69.429,58.159,67.883,60.441,67.213,62.789z"/>
	<path fill="#FFFFFF" d="M88.842,59.1c1.383-2.112,3.815-3.29,6.247-3.687c2.804-0.372,5.704-0.042,8.312,1.066
		c0.412,1.841,0.465,3.733,0.451,5.612c-0.412,0.301-0.822,0.599-1.24,0.887c-1.574-2.03-2.545-5.026-5.354-5.65
		c-2.609-0.912-5.35,2.63-3.506,4.842c2.638,3.194,7.225,3.942,9.809,7.224c1.273,1.551,1.485,3.684,1.195,5.604
		c-0.628,3.154-3.475,5.467-6.51,6.172c-3.023,0.715-6.332,0.703-9.264-0.408c-1.215-0.391-1.375-1.814-1.701-2.859
		c-0.291-1.412-0.709-3.012,0.049-4.344c1.117-0.053,1.55,1.088,2.086,1.855c1.099,1.824,2.68,3.494,4.761,4.143
		c1.003,0.365,2.106,0.088,3.024-0.379c1.881-0.938,2.313-3.816,0.782-5.26c-2.733-2.541-6.696-3.578-8.919-6.695
		C87.346,64.901,87.167,61.498,88.842,59.1z"/>
	<path fill="#FFFFFF" d="M217.637,59.885c2.67-2.289,5.867-4.197,9.416-4.598c3.957-0.348,7.621,2.988,7.912,6.889
		c0.291,4.389-0.229,8.792-0.027,13.18c0.076,0.988,1.035,1.695,1.963,1.83c1.035-0.182,2.014-0.576,3.031-0.828
		c0.312,1.91-1.23,3.32-2.688,4.246c-1.979,1.244-4.65,1.672-6.746,0.457c-1.035-0.574-1.549-1.688-2.119-2.662
		c-2.754,1.523-5.672,3.715-9.004,3.086c-3.482-1.318-5.066-6.225-2.906-9.295c0.402-0.637,1.029-1.098,1.711-1.404
		c3.336-1.496,7.051-1.892,10.369-3.413c0.051-2.031,0.338-4.091-0.016-6.105c-0.605-2.457-3.602-3.867-5.869-2.732
		c-0.777,0.939-0.391,2.314-0.535,3.442c-1.787,0.969-3.609,1.922-5.559,2.524c-0.568,0.255-1.127-0.287-1.084-0.862
		C215.449,62.1,216.562,60.851,217.637,59.885 M222.611,71.662c-1.9,2.158,0.1,6.225,2.988,6.057
		c1.014-0.154,2.439-0.463,2.605-1.682c0.291-2.086,0.359-4.195,0.316-6.295C226.436,69.803,224.299,70.416,222.611,71.662z"/>
	<path fill="#FFFFFF" d="M299.107,59.888c2.754-3.151,7.051-5.059,11.256-4.523c2.145,0.305,4.244,1.279,5.701,2.914
		c1.436,1.531,2.365,3.758,1.846,5.855c-0.553,1.142-1.955,0.823-2.977,0.873c-4.197,0.042-8.406-0.16-12.598,0.117
		c-0.68,2.871,0.02,5.979,1.695,8.377c2.508,3.184,7.357,3.932,10.943,2.311c0.91-0.518,1.566-1.361,2.27-2.115
		c0.193,0.027,0.584,0.092,0.777,0.123c0.207,2.174-1.479,3.834-2.938,5.195c-2.736,2.451-6.668,2.98-10.186,2.398
		c-2.822-0.545-5.453-2.209-7.002-4.65C294.654,71.668,295.049,64.429,299.107,59.888 M302.609,62.994
		c2.352,0.054,4.709,0.074,7.062,0.024c1.352,0.05,2.641-1.209,2.258-2.598c-0.381-1.904-2.35-3.836-4.406-3.22
		C304.932,57.937,303.049,60.381,302.609,62.994z"/>
	<path fill="#FFFFFF" d="M327.508,56.294c2.928-1.355,6.332-1.23,9.406-0.469c0.676,0.252,1.703,0.365,1.9,1.206
		c0.383,1.627,0.318,3.311,0.338,4.973c-0.305,0.347-0.609,0.696-0.91,1.046c-1.656-1.386-2.182-3.694-3.977-4.948
		c-1.018-0.702-2.395-1.203-3.594-0.695c-1.217,0.481-2.156,1.706-2.188,3.027c0.029,1.27,0.914,2.297,1.867,3.039
		c2.766,2.126,6.344,3.197,8.572,5.995c1.322,1.621,1.365,3.865,1.064,5.834c-0.783,3.213-3.842,5.416-6.98,6.002
		c-3.188,0.605-6.646,0.508-9.602-0.949c-0.789-2.242-1.67-4.734-0.732-7.074c1.645,0.854,2.207,2.729,3.436,4.002
		c1.158,1.242,2.662,2.354,4.416,2.447c1.453-0.072,3.047-0.822,3.5-2.312c0.57-1.344,0.045-2.934-1.061-3.826
		c-2.141-1.689-4.645-2.857-6.82-4.494c-1.969-1.55-3.322-4.017-3.131-6.562C323.133,59.8,325.064,57.399,327.508,56.294z"/>
	<path fill="#FFFFFF" d="M203.352,99.334c1.842-0.83,3.887-1.031,5.809-1.633c-0.061,3.881-0.195,7.764-0.146,11.646
		c0.059,3.279-0.145,6.566,0.193,9.834c0.832,0.006,1.666,0.008,2.502,0.037c-0.443,0.512-0.846,1.205-1.619,1.219
		c-1.531,0.271-3.049,0.633-4.574,0.939c-0.031-0.643-0.057-1.279-0.074-1.918c-1.928,1.34-4.559,2.104-6.74,0.906
		c-3.715-1.832-4.115-7.426-1.385-10.27c2.07-2.219,5.279-2.832,8.193-2.627c0.018-1.971,0.119-3.947-0.07-5.914
		C205.463,100.348,204.098,99.998,203.352,99.334 M201.688,108.848c-0.701,0.277-1.297,0.805-1.674,1.453
		c-1.354,2.561-0.971,6.178,1.439,7.979c1.023,0.768,2.791,1.146,3.715,0.059c0.557-1.258,0.33-2.68,0.385-4.014
		c-0.064-1.305,0.209-2.732-0.498-3.91C204.34,109.35,203.01,108.465,201.688,108.848z"/>
	<path fill="#FFFFFF" d="M320.121,99.643c0.721-0.266,1.498-0.01,2.238,0.064c-0.547,1.871-1.752,3.438-2.854,5.014
		c-0.527,0.75-1.217,1.369-1.971,1.883c-0.09-1.674,0.746-3.166,1.348-4.67C319.24,101.147,319.531,100.297,320.121,99.643z"/>
	<path fill="#FFFFFF" d="M37.509,100.031c5.055,0.02,10.109,0.111,15.166-0.025c0.015,1.729,0.135,3.459-0.018,5.189
		c-1.545-0.807-1.357-3.256-3.227-3.65c-1.561-0.211-3.154-0.191-4.727-0.076c-0.414,0.373-0.369,0.961-0.414,1.465
		c-0.053,2.287-0.185,4.58,0.011,6.863c1.655-0.059,3.425,0.273,4.987-0.41c0.519-0.568,0.776-1.309,1.131-1.98
		c0.168,0.012,0.504,0.029,0.671,0.039c-0.028,1.586-0.089,3.176-0.036,4.76c0.075,0.711-0.223,1.371-0.5,2.012
		c-0.496-0.811-0.818-1.736-1.432-2.473c-1.504-0.752-3.276-0.443-4.896-0.379c0.021,2.305-0.046,4.629,0.195,6.93
		c0.266,1.213,1.775,1.176,2.701,1.6c0.033,0.176,0.096,0.525,0.132,0.697c-2.56,0.453-5.177,0.035-7.757,0.279
		c-0.805-0.07-1.939,0.336-2.437-0.523c1.021-0.717,2.886-0.891,2.894-2.465c0.142-3.438,0.361-6.869,0.312-10.311
		c-0.021-1.807,0.114-3.65-0.354-5.412c-0.506-0.848-1.645-0.922-2.471-1.312C37.462,100.574,37.483,100.299,37.509,100.031z"/>
	<path fill="#FFFFFF" d="M110.506,100.115c2.241-0.264,4.491,0.01,6.739-0.035c1.082,2.814,2.518,5.479,3.814,8.203
		c1.003,1.988,1.932,4.02,3.077,5.934c2.428-4.615,4.871-9.25,6.7-14.141c2.215,0.193,4.542-0.512,6.658,0.352
		c-1.166,0.787-3.449,0.748-3.515,2.545c-0.147,3.246,0,6.498,0.064,9.746c0.096,1.779,0.049,3.58,0.364,5.338
		c0.287,1.584,2.605,1.186,2.975,2.721c-1.904,0.148-3.814-0.02-5.722,0.012c-1.479-0.002-3.003,0.186-4.422-0.359
		c0.993-0.811,2.72-1.174,2.733-2.732c0.298-4.1-0.035-8.219,0.355-12.311c-0.117-0.031-0.345-0.088-0.457-0.117
		c-1.698,3.764-3.605,7.432-5.22,11.23c-0.69,1.609-1.229,3.307-2.269,4.74c-1.049-1.518-1.457-3.342-2.198-5.01
		c-1.571-3.678-3.194-7.338-4.917-10.949c-0.41,3.715-0.523,7.455-0.582,11.191c0.079,0.824-0.081,1.914,0.691,2.467
		c0.847,0.537,1.787,0.906,2.631,1.459c-0.741,0.25-1.5,0.506-2.293,0.439c-1.947-0.082-3.893-0.016-5.839,0.012
		c-0.032-0.271-0.063-0.543-0.097-0.811c0.799-0.354,1.664-0.605,2.352-1.16c0.681-0.623,0.72-1.627,0.876-2.479
		c0.45-3.988,0.812-7.986,1.069-11.988c0.016-0.855,0.136-1.836-0.479-2.531C112.594,101.237,111.258,101.149,110.506,100.115z"/>
	<path fill="#FFFFFF" d="M233.438,100.033c2.135-0.102,4.268,0.062,6.402,0.053c1.189,3.074,2.762,5.98,4.18,8.957
		c0.865,1.74,1.705,3.502,2.74,5.148c2.355-4.641,4.879-9.227,6.676-14.119c2.09,0.043,4.178-0.109,6.266-0.039
		c-0.072,0.201-0.207,0.611-0.273,0.816c-1.029,0.406-2.703,0.502-2.822,1.883c-0.172,3.496-0.043,7.008,0.049,10.508
		c0.086,1.623,0.037,3.264,0.357,4.861c0.303,1.275,1.859,1.33,2.791,1.949c-0.01,0.178-0.031,0.535-0.047,0.715
		c-2.17,0.211-4.35-0.068-6.523,0.031c-1.102-0.033-2.318,0.275-3.275-0.428c0.684-0.576,1.525-0.922,2.229-1.475
		c0.514-0.959,0.482-2.092,0.521-3.146c0.061-3.613,0.113-7.232-0.004-10.844c-1.789,3.695-3.617,7.379-5.256,11.145
		c-0.77,1.744-1.34,3.59-2.414,5.184c-0.412-0.6-0.811-1.215-1.059-1.898c-1.777-4.797-3.945-9.436-6.113-14.068
		c-0.395,4.088-0.656,8.211-0.52,12.316c0.016,1.77,2.174,1.941,3.291,2.814c-1.508,0.695-3.17,0.344-4.762,0.4
		c-1.158-0.016-2.332,0.162-3.477-0.092c-0.188-0.99,1.141-0.984,1.719-1.445c1.135-0.42,1.33-1.742,1.479-2.785
		c0.461-4.018,0.811-8.049,1.074-12.082c0.027-0.838,0.107-1.773-0.414-2.488c-0.766-0.58-1.748-0.725-2.637-1.021
		C233.572,100.672,233.48,100.246,233.438,100.033z"/>
	<path fill="#FFFFFF" d="M153.905,101.459c0.454-0.98,1.74-1.09,2.603-0.619c0.627,0.424,0.894,1.172,1.265,1.803
		c-0.429,0.758-0.805,1.781-1.783,1.949C154.362,105.016,152.891,102.824,153.905,101.459z"/>
	<path fill="#FFFFFF" d="M83.464,105.221c0.562,0.77,0.574,1.715,0.609,2.625c1.361-0.016,2.719-0.053,4.08-0.041
		c0.061,0.676,0.106,1.354,0.148,2.035c-1.425,0.045-2.85,0.035-4.275,0.078c-0.014,2.309-0.056,4.619-0.01,6.93
		c-0.011,0.645,0.28,1.377,0.943,1.598c1.158,0.643,2.347-0.215,3.488-0.471c-0.267,2.199-2.69,3.205-4.658,3.141
		c-1.571-0.119-3.266-1.193-3.354-2.898c-0.185-2.631,0.224-5.279,0.015-7.904c-0.543-0.443-1.152-0.803-1.685-1.26
		C80.358,107.805,82.056,106.686,83.464,105.221z"/>
	<path fill="#FFFFFF" d="M274.408,109.088c1.705-1.111,3.236-2.441,4.775-3.764c0.824,0.549,0.422,1.672,0.568,2.512
		c1.389-0.002,2.785-0.043,4.18-0.027c0.051,0.678,0.094,1.35,0.137,2.031c-1.385,0.049-2.771,0.039-4.154,0.049
		c-0.23,1.957-0.123,3.928-0.205,5.891c-0.025,0.934-0.037,2.184,0.975,2.625c1.139,0.713,2.365-0.18,3.498-0.422
		c-0.475,3.592-6.594,4.354-7.838,0.9c-0.4-2.861,0.061-5.766-0.066-8.643C275.639,109.879,275.021,109.481,274.408,109.088z"/>
	<path fill="#FFFFFF" d="M152.012,109.045c1.875-0.605,3.737-1.24,5.581-1.939c-0.007,4.291,0.13,8.598-0.125,12.883
		c-0.099,2.744-1.34,5.363-3.293,7.277c-1.114,1.119-2.578,2.439-4.279,1.727c1.131-0.986,2.639-1.73,3.151-3.242
		c0.915-2.396,0.926-5.018,0.968-7.547c-0.16-2.439,0-4.889-0.167-7.32C153.221,110.285,152.597,109.684,152.012,109.045z"/>
	<path fill="#FFFFFF" d="M177.346,109.022c1.708-0.654,3.421-1.307,5.113-2.018c0,0.838,0.006,1.674-0.014,2.51
		c1.078-0.934,2.23-2.137,3.775-2.072c0.812-0.051,1.879,0.564,1.705,1.496c-0.332,0.984-1.145,1.701-1.854,2.428
		c-1.096-0.604-2.25-1.398-3.562-1.016c0.031,2.973-0.195,5.986,0.412,8.91c0.992,0.316,1.975,0.676,2.898,1.168
		c-1.785,0.75-3.732,0.262-5.602,0.365c-1.167-0.051-2.446,0.287-3.476-0.438c0.802-0.592,2.229-0.869,2.163-2.127
		c0.143-2.131,0.05-4.271,0.062-6.402C179.064,110.631,177.93,109.922,177.346,109.022z"/>
	<path fill="#FFFFFF" d="M299.816,109.022c1.695-0.654,3.406-1.277,5.074-2.018c0.01,0.824,0,1.648-0.008,2.477
		c1.254-1.145,2.729-2.168,4.514-2.111c0.428,0.422,0.852,0.85,1.275,1.289c-0.57,0.955-1.23,1.85-1.939,2.697
		c-1.217-0.508-2.535-1.631-3.861-0.768c0.238,2.76,0.125,5.551,0.443,8.297c0.721,0.811,1.932,0.889,2.826,1.469
		c-0.695,0.805-1.857,0.406-2.775,0.482c-2.09-0.211-4.26,0.311-6.271-0.412c0.691-0.416,1.404-0.795,2.119-1.166
		c0.416-2.805,0.352-5.666,0.143-8.484C300.809,110.219,300.287,109.641,299.816,109.022z"/>
	<path fill="#FFFFFF" d="M55.899,109.463c1.943-1.984,5.322-2.783,7.711-1.137c1.127,0.693,1.557,1.996,1.953,3.184
		c-0.191,0.322-0.383,0.646-0.57,0.971c-2.609,0.217-5.314-0.322-7.863,0.291c-0.121,1.43,0.209,2.932,1.066,4.098
		c1.063,1.316,2.928,1.811,4.553,1.496c1.039-0.195,1.779-1.025,2.615-1.59c0.047,1.99-1.711,3.418-3.442,4.012
		c-1.978,0.432-4.304,0.375-5.902-1.033C53.067,117.205,53.099,112.115,55.899,109.463 M57.276,111.324
		c1.448,0.057,2.935,0.24,4.366-0.059c1.272-0.729,0.136-2.555-0.954-2.816C58.942,108.192,57.928,109.998,57.276,111.324z"/>
	<path fill="#FFFFFF" d="M70.843,107.744c1.727-0.469,3.771-0.527,5.339,0.453c0.213,1.105,0.19,2.275-0.103,3.367
		c-1.25-0.865-1.625-2.736-3.244-3.088c-1.287-0.316-2.592,1.422-1.674,2.492c1.373,1.686,3.771,2.076,5.112,3.805
		c1.128,1.553,0.73,3.939-0.825,5.064c-2.061,1.613-4.938,1.486-7.289,0.631c-0.404-1.27-0.685-2.604-0.433-3.943
		c1.13,1.004,1.812,2.479,3.147,3.242c0.848,0.326,2.049,0.312,2.609-0.52c0.379-0.658,0.41-1.643-0.217-2.17
		c-1.584-1.523-4.158-2.057-5.02-4.27C67.315,110.762,68.751,108.305,70.843,107.744z"/>
	<path fill="#FFFFFF" d="M89.958,112.299c0.277-2.523,2.812-3.811,4.925-4.621c2.147-0.879,4.786,0.525,5.218,2.803
		c0.337,2.344-0.05,4.717,0.053,7.066c0.008,0.529,0.5,0.861,0.771,1.27c0.673-0.186,1.347-0.363,2.026-0.525
		c-0.367,1.848-2.317,3.1-4.14,2.822c-0.979-0.125-1.563-0.971-2.173-1.646c-1.391,0.834-2.932,1.863-4.641,1.459
		c-2.018-0.848-2.701-4.227-0.648-5.422c1.734-0.789,3.63-1.123,5.432-1.727c0.121-1.225,0.504-2.58-0.168-3.715
		c-0.5-0.906-1.613-1.316-2.599-1.096c-0.433,0.598-0.422,1.369-0.558,2.062C92.351,111.608,91.198,112.114,89.958,112.299
		 M94.114,115.707c-1.082,0.641-0.718,2.354,0.215,2.973c0.752,0.736,2.373,0.26,2.404-0.85c0.1-1.01,0.07-2.029,0.045-3.043
		C95.874,115.041,94.938,115.242,94.114,115.707z"/>
	<path fill="#FFFFFF" d="M142.149,108.252c0.934-0.443,1.93-0.848,2.981-0.807c1.836-0.039,3.463,1.52,3.715,3.301
		c0.255,2.479-0.213,4.986,0.095,7.461c0.692,0.859,1.734,0.24,2.613,0.135c-0.28,1.846-2.234,2.969-3.992,2.795
		c-1.003-0.098-1.605-0.949-2.201-1.65c-1.429,0.811-2.999,1.846-4.722,1.432c-2.081-0.85-2.641-4.391-0.485-5.48
		c1.737-0.742,3.609-1.072,5.382-1.715c-0.021-1.395,0.461-3.109-0.671-4.201c-0.62-0.678-1.573-0.586-2.39-0.461
		c-0.117,0.662-0.237,1.324-0.347,1.99c-1.117,0.551-2.262,1.064-3.502,1.256C138.785,110.311,140.54,109.104,142.149,108.252
		 M142.178,116.332c-0.213,0.938,0.163,1.93,0.982,2.451c0.645,0.461,1.41,0,2.103-0.088c0.156-1.297,0.234-2.6,0.28-3.898
		C144.383,115.145,142.926,115.252,142.178,116.332z"/>
	<path fill="#FFFFFF" d="M165.816,107.793c1.922-0.582,4.103-0.5,5.871,0.504c2.162,1.148,3.645,3.561,3.479,6.035
		c0.062,2.354-1.376,4.576-3.372,5.752c-1.929,1.072-4.332,1.379-6.406,0.541c-2.981-1.02-5.045-4.281-4.47-7.418
		C161.247,110.6,163.343,108.5,165.816,107.793 M167.469,108.539c-1.379,0.311-2.233,1.652-2.471,2.973
		c-0.397,2.021-0.287,4.223,0.592,6.102c0.631,1.277,1.946,2.602,3.495,2.242c1.279-0.559,1.729-2.027,1.996-3.285
		c0.325-2.037,0.185-4.225-0.756-6.094C169.809,109.401,168.688,108.518,167.469,108.539z"/>
	<path fill="#FFFFFF" d="M213.254,111.918c1.137-3.229,5.018-5.363,8.301-4.131c1.801,0.666,3.389,2.787,2.471,4.715
		c-2.631,0.018-5.258-0.004-7.885,0.012c-0.061,1.162-0.096,2.381,0.438,3.451c0.793,1.943,3.154,2.809,5.117,2.395
		c1.029-0.207,1.76-1.021,2.627-1.543c-0.051,2.758-3.051,4.156-5.455,4.367c-1.305-0.252-2.705-0.438-3.758-1.322
		C212.814,118.018,212.207,114.59,213.254,111.918 M218.707,108.518c-1.303,0.396-1.93,1.697-2.477,2.83
		c1.238,0.055,2.486,0.115,3.73,0.039c0.469,0.01,0.883-0.234,1.164-0.604C221.381,109.506,220.023,108.008,218.707,108.518z"/>
	<path fill="#FFFFFF" d="M262.504,109.787c1.666-1.373,3.777-2.68,6.035-2.262c1.586,0.43,2.885,1.928,2.951,3.602
		c0.146,2.135-0.105,4.27-0.031,6.404c0.004,0.527,0.469,0.879,0.729,1.299c0.652-0.193,1.309-0.373,1.967-0.541
		c-0.248,1.895-2.293,3.09-4.088,2.824c-0.967-0.135-1.549-0.957-2.145-1.625c-1.414,0.816-2.969,1.848-4.686,1.43
		c-1.926-0.805-2.531-3.908-0.875-5.248c1.768-0.984,3.828-1.225,5.715-1.908c0.074-1.176,0.348-2.418-0.119-3.543
		c-0.301-0.797-1.189-1.049-1.859-1.43c-0.406,0.17-0.805,0.342-1.203,0.512c-0.02,0.553-0.031,1.109-0.045,1.662
		c-1.127,0.574-2.279,1.102-3.514,1.389C261.422,111.389,261.652,110.367,262.504,109.787 M264.777,117.172
		c-0.025,0.973,0.906,1.508,1.574,2.041c0.48-0.287,1.154-0.375,1.502-0.852c0.277-1.166,0.182-2.383,0.178-3.574
		C266.812,115.225,264.5,115.35,264.777,117.172z"/>
	<path fill="#FFFFFF" d="M287.617,109.301c1.344-1.01,2.936-1.887,4.662-1.855c1.758-0.006,3.291,1.447,3.631,3.129
		c0.436,2.527-0.305,5.125,0.174,7.639c0.617,0.922,1.736,0.197,2.58,0.121c-0.283,1.826-2.188,2.926-3.928,2.814
		c-1.027-0.078-1.672-0.943-2.283-1.666c-1.426,0.795-2.971,1.84-4.686,1.438c-1.865-0.768-2.521-3.639-1.086-5.088
		c1.703-1.307,4.154-1.09,5.863-2.283c0.34-1.412,0.455-3.463-0.977-4.352c-0.713-0.205-1.457-0.1-2.184-0.07
		c0.008,0.584,0.018,1.166,0.031,1.75c-1.105,0.559-2.221,1.402-3.523,1.26C285.771,110.893,286.695,109.975,287.617,109.301
		 M289.791,115.764c-1.018,0.77-0.547,2.475,0.471,3.025c0.666,0.455,1.441-0.023,2.145-0.125c0.098-1.291,0.139-2.586,0.104-3.877
		C291.588,115.063,290.617,115.252,289.791,115.764z"/>
	<path fill="#FFFFFF" d="M316.809,107.678c1.992-0.51,4.213-0.242,5.938,0.918c2.021,1.262,3.201,3.693,2.988,6.059
		c-0.127,2.939-2.414,5.564-5.273,6.184c-2.605,0.771-5.604-0.131-7.371-2.186c-2.316-2.451-2.219-6.799,0.254-9.107
		C314.309,108.633,315.523,108.004,316.809,107.678 M317.191,108.905c-1.43,0.912-1.766,2.77-1.818,4.342
		c-0.033,2.131,0.336,4.564,2.084,6.002c0.773,0.699,2.127,1.006,2.91,0.145c1.031-1.061,1.316-2.617,1.461-4.035
		c0.082-1.898-0.223-3.924-1.326-5.518C319.771,108.871,318.309,108.057,317.191,108.905z"/>
</g>
</svg>
